<?xml version="1.0" encoding="UTF-8"?>
<!DOCTYPE svg PUBLIC "-//W3C//DTD SVG 1.1//EN" "http://www.w3.org/Graphics/SVG/1.1/DTD/svg11.dtd">
<svg xmlns="http://www.w3.org/2000/svg" version="1.1" width="1064px" height="1064px" viewBox="0 0 1064 1064" style="shape-rendering:geometricPrecision; text-rendering:geometricPrecision; image-rendering:optimizeQuality; fill-rule:evenodd; clip-rule:evenodd" xmlns:xlink="http://www.w3.org/1999/xlink">
<g><path style="opacity:1" fill="#000000" d="M -0.5,-0.5 C -0.166667,-0.5 0.166667,-0.5 0.5,-0.5C 0.31468,0.170143 -0.0186536,0.170143 -0.5,-0.5 Z"/></g>
<g><path style="opacity:1" fill="#000000" d="M 1062.5,-0.5 C 1062.83,-0.5 1063.17,-0.5 1063.5,-0.5C 1063.5,-0.166667 1063.5,0.166667 1063.5,0.5C 1063.17,0.166667 1062.83,-0.166667 1062.5,-0.5 Z"/></g>
<g><path style="opacity:1" fill="#000000" d="M 185.5,85.5 C 416.834,85.3333 648.167,85.5 879.5,86C 906.862,89.0977 930.029,100.598 949,120.5C 964.226,137.962 973.226,158.295 976,181.5C 976.667,414.833 976.667,648.167 976,881.5C 968.963,931.871 940.797,963.371 891.5,976C 888.167,976.333 884.833,976.667 881.5,977C 860.651,977.206 839.818,977.706 819,978.5C 621.199,978.231 423.366,978.064 225.5,978C 207.808,977.844 190.141,977.178 172.5,976C 137.542,968.042 112.376,947.875 97,915.5C 93.2424,906.136 90.5757,896.47 89,886.5C 88.3333,649.833 88.3333,413.167 89,176.5C 97.8643,132.302 123.698,103.136 166.5,89C 172.906,87.4378 179.24,86.2712 185.5,85.5 Z M 238.5,141.5 C 431.273,142.673 624.106,142.673 817,141.5C 838.824,142.26 860.658,142.76 882.5,143C 903.295,149.461 916.128,163.294 921,184.5C 921.375,198.505 921.875,212.505 922.5,226.5C 922.253,416.632 922.253,606.799 922.5,797C 921.696,824.485 921.196,851.985 921,879.5C 915.589,902.958 901.089,917.125 877.5,922C 647.5,922.667 417.5,922.667 187.5,922C 162.103,916.603 147.269,901.103 143,875.5C 142.333,646.833 142.333,418.167 143,189.5C 145.758,165.148 158.924,149.648 182.5,143C 201.338,142.832 220.004,142.332 238.5,141.5 Z"/></g>
<g><path style="opacity:1" fill="#050605" d="M 207.5,88.5 C 421.666,87.3337 636,87.1671 850.5,88C 768.597,88.1682 686.763,88.6682 605,89.5C 472.57,88.501 340.07,88.1677 207.5,88.5 Z"/></g>
<g><path style="opacity:1" fill="#050605" d="M 139.5,184.5 C 140.666,416.333 140.833,648.333 140,880.5C 139.5,880 139,879.5 138.5,879C 138.237,647.955 138.571,416.455 139.5,184.5 Z"/></g>
<g><path style="opacity:1" fill="#000000" d="M 523.5,296.5 C 540.026,294.882 550.859,301.882 556,317.5C 556.5,379.499 556.667,441.499 556.5,503.5C 612.501,503.333 668.501,503.5 724.5,504C 744.509,508.163 752.343,520.33 748,540.5C 744.237,549.265 737.737,554.765 728.5,557C 693.637,557.177 658.804,557.677 624,558.5C 601.495,557.936 578.995,557.603 556.5,557.5C 556.667,618.501 556.5,679.501 556,740.5C 550.713,757.728 539.213,764.562 521.5,761C 511.594,758.093 505.427,751.593 503,741.5C 502.5,680.168 502.333,618.834 502.5,557.5C 445.832,557.667 389.166,557.5 332.5,557C 315.19,551.219 308.69,539.386 313,521.5C 317.444,511.049 325.277,505.216 336.5,504C 391.832,503.5 447.166,503.333 502.5,503.5C 502.333,441.166 502.5,378.832 503,316.5C 506.453,306.212 513.286,299.545 523.5,296.5 Z"/></g>
<g><path style="opacity:1" fill="#050000" d="M 504.5,481.5 C 505.833,481.5 507.167,481.5 508.5,481.5C 508.817,484.572 508.484,487.572 507.5,490.5C 506.167,489.833 505.167,488.833 504.5,487.5C 505.248,485.584 505.248,483.584 504.5,481.5 Z"/></g>
<g><path style="opacity:1" fill="#050605" d="M 334.5,507.5 C 390.665,506.335 446.999,506.168 503.5,507C 500.342,507.554 497.175,508.054 494,508.5C 439.616,507.958 386.449,507.625 334.5,507.5 Z"/></g>
<g><path style="opacity:1" fill="#050605" d="M 555.5,507.5 C 583.831,506.833 612.331,506.5 641,506.5C 669.977,506.337 698.811,506.837 727.5,508C 671.248,508.063 613.915,507.896 555.5,507.5 Z"/></g>
<g><path style="opacity:1" fill="#050605" d="M 353.5,552.5 C 400.875,553.083 447.708,553.083 494,552.5C 497.129,553.13 500.296,553.796 503.5,554.5C 451.797,554.348 400.63,554.681 350,555.5C 344.538,554.736 339.038,554.236 333.5,554C 340.346,553.828 347.013,553.328 353.5,552.5 Z"/></g>
<g><path style="opacity:1" fill="#050605" d="M 562.5,552.5 C 612.749,553.725 662.582,553.725 712,552.5C 717.417,553.309 722.917,553.809 728.5,554C 719.822,554.326 711.155,554.826 702.5,555.5C 653.767,554.303 605.267,554.303 557,555.5C 556.5,555 556,554.5 555.5,554C 558.036,553.814 560.369,553.314 562.5,552.5 Z"/></g>
<g><path style="opacity:1" fill="#050605" d="M 98.5,910.5 C 100.254,912.573 101.92,914.739 103.5,917C 102.366,918.016 102.699,918.683 104.5,919C 104,919.5 103.5,920 103,920.5C 100.676,917.52 99.176,914.187 98.5,910.5 Z"/></g>
<g><path style="opacity:1" fill="#060702" d="M 162.5,915.5 C 164.337,915.639 164.67,916.306 163.5,917.5C 162.702,917.043 162.369,916.376 162.5,915.5 Z"/></g>
<g><path style="opacity:1" fill="#000000" d="M -0.5,1062.5 C 0.166667,1062.5 0.5,1062.83 0.5,1063.5C 0.166667,1063.17 -0.166667,1062.83 -0.5,1062.5 Z"/></g>
</svg>
