<?xml version="1.0" encoding="UTF-8"?>
<svg version="1.1" xmlns="http://www.w3.org/2000/svg" width="1064" height="1064" viewBox="0 0 1064 1064">
<path d="M0 0 C3.64822723 0.01025603 7.29638852 -0.00293551 10.94460608 -0.01297333 C17.32263193 -0.0273467 23.70052208 -0.02702739 30.07855399 -0.01678469 C39.56316301 -0.00159474 49.04765849 -0.00942068 58.53226684 -0.02161792 C75.47581815 -0.04263778 92.41930898 -0.0408726 109.36286599 -0.02930227 C124.19011158 -0.01922721 139.01733504 -0.01661922 153.84458335 -0.02139284 C154.82934417 -0.02169838 155.81410499 -0.02200393 156.82870705 -0.02231872 C160.82648573 -0.02356414 164.82426441 -0.02483775 168.82204307 -0.02615778 C206.29841485 -0.03838456 243.77474819 -0.02731439 281.25111404 -0.00577019 C314.52503361 0.01321269 347.79889193 0.01151141 381.07281097 -0.00761416 C418.48356405 -0.02904583 455.8942832 -0.03751881 493.30504157 -0.0251651 C497.29508983 -0.02388229 501.2851381 -0.02263093 505.27518638 -0.02139284 C506.25758947 -0.02107654 507.23999257 -0.02076023 508.25216545 -0.02043433 C523.06846888 -0.01589002 537.88474772 -0.02119511 552.70104774 -0.03131106 C569.55197539 -0.04275902 586.40283327 -0.0398654 603.25375226 -0.01818808 C612.67735519 -0.00646434 622.10080695 -0.00564517 631.52440588 -0.02077278 C637.82698694 -0.02977204 644.12944734 -0.02410671 650.43201059 -0.0067537 C654.01757371 0.00271841 657.60283754 0.00610592 661.18839076 -0.00837763 C681.12398782 -0.08288573 698.05384989 0.95858613 715.99297698 10.51387022 C717.01004729 11.05012022 718.02711761 11.58637022 719.07500823 12.13887022 C745.15055035 26.59924788 762.87616264 50.76743167 771.08282073 79.08808897 C772.31224613 83.71558284 773.11778467 87.90318246 773.12177815 92.69875161 C773.12505034 93.73026932 773.12832254 94.76178703 773.13169389 95.82456286 C773.13021026 96.95338952 773.12872664 98.08221619 773.12719806 99.24524973 C773.12955029 100.4528134 773.13190252 101.66037706 773.13432603 102.90453357 C773.13985081 106.26807605 773.14088764 109.63156639 773.14004862 112.99510978 C773.14021812 116.65019105 773.14612428 120.30526377 773.15128948 123.96034078 C773.16061882 131.21524335 773.1645381 138.47013981 773.16680845 145.72504763 C773.16976972 154.41319482 773.17846679 163.1013339 773.18722273 171.78947684 C773.20807297 192.7924243 773.21853847 213.79537317 773.22735233 234.79832857 C773.23155867 244.73544754 773.23678073 254.67256591 773.24203686 264.60968437 C773.259929 298.62818126 773.27492416 332.64667833 773.28235705 366.66517923 C773.28283181 368.80117754 773.2833077 370.93717584 773.28378472 373.07317415 C773.28413928 374.66206779 773.28413928 374.66206779 773.28450101 376.28306029 C773.2857022 381.64979186 773.28691765 387.01652342 773.288143 392.38325498 C773.28838315 393.44829941 773.2886233 394.51334384 773.28887072 395.61066235 C773.296761 430.13024128 773.32018623 464.64978582 773.35269894 499.16934974 C773.3870128 535.66792308 773.40670972 572.1664763 773.4100013 608.66506604 C773.41041883 612.67358989 773.41089839 616.68211373 773.41142448 620.69063757 C773.41154767 621.67764404 773.41167086 622.66465052 773.41179778 623.68156629 C773.41412806 639.55279572 773.42977861 655.42398518 773.45026632 671.29520037 C773.4705433 687.2567501 773.47599279 703.21825191 773.46649569 719.17981213 C773.46128775 728.65647028 773.46712468 738.13296865 773.48903036 747.60960374 C773.50257412 753.94927093 773.50142999 760.28882858 773.4886284 766.62849695 C773.4817554 770.23466441 773.48098002 773.84052721 773.49818849 777.44666702 C773.64528974 810.36505807 767.04526219 836.87589547 743.46563323 861.11152647 C724.57808618 879.05608292 700.57572324 888.86750079 674.55175193 888.77113912 C673.34034235 888.7746452 672.12893276 888.77815127 670.8808138 888.78176359 C667.53440467 888.78943525 664.18821685 888.78824104 660.84181731 888.78320805 C657.19495272 888.77992697 653.54811087 888.78823593 649.90125366 888.7950264 C643.51477426 888.80531323 637.12832516 888.80817248 630.74183829 888.80611417 C621.24451866 888.80306077 611.74723249 888.8113957 602.24991936 888.82186343 C584.29912549 888.84119588 566.34834304 888.84683137 548.39753998 888.84797754 C534.53352844 888.84889698 520.66952139 888.8530155 506.80551131 888.85937879 C502.81330828 888.86117391 498.82110524 888.86295354 494.8289022 888.86472855 C493.34014694 888.86539169 493.34014694 888.86539169 491.82131582 888.86606823 C463.90733442 888.8783751 435.99335457 888.88626952 408.07937034 888.88538168 C406.50103362 888.88533494 406.50103362 888.88533494 404.89081132 888.88528726 C399.55782614 888.88512105 394.22484096 888.88492297 388.89185578 888.88471784 C387.83272589 888.88467795 386.773596 888.88463806 385.68237127 888.88459696 C383.54055267 888.88451609 381.39873407 888.88443249 379.25691548 888.88434618 C345.93714769 888.8831208 312.61742062 888.89813215 279.29766448 888.92549131 C241.85364012 888.95622435 204.40964251 888.97342307 166.96560474 888.97156487 C162.97151557 888.97141561 158.97742641 888.97131819 154.98333724 888.97125623 C153.50819434 888.97122127 153.50819434 888.97122127 152.00325058 888.9711856 C136.18980583 888.9711241 120.37639648 888.98388593 104.56296225 889.00112076 C88.66489032 889.01808925 72.76687007 889.02004156 56.86879409 889.00690212 C47.42966826 888.9995211 37.99069964 889.00314554 28.55159052 889.0227868 C22.23842497 889.03481109 15.92537294 889.03216859 9.61221254 889.0178458 C6.02047148 889.0101034 2.42903399 889.00847075 -1.16268533 889.02476051 C-21.12830295 889.10931017 -38.03592909 888.06461847 -56.00702302 878.51387022 C-57.00089021 878.00082334 -57.99475739 877.48777647 -59.01874177 876.95918272 C-67.25168778 872.46065797 -74.07602641 866.76205609 -81.00702302 860.51387022 C-81.66315583 859.94152647 -82.31928864 859.36918272 -82.99530427 858.77949522 C-98.3875765 844.52603071 -112.05443572 820.29877957 -113.13358486 799.01808565 C-113.13432384 798.1306837 -113.13506281 797.24328175 -113.13582419 796.32898883 C-113.13909638 795.29747112 -113.14236857 794.2659534 -113.14573993 793.20317758 C-113.1442563 792.07435091 -113.14277268 790.94552424 -113.1412441 789.78249071 C-113.14359633 788.57492704 -113.14594856 787.36736337 -113.14837207 786.12320686 C-113.15389685 782.75966439 -113.15493368 779.39617405 -113.15409466 776.03263065 C-113.15426416 772.37754938 -113.16017032 768.72247666 -113.16533552 765.06739966 C-113.17466486 757.81249709 -113.17858414 750.55760062 -113.18085448 743.3026928 C-113.18381576 734.61454561 -113.19251282 725.92640653 -113.20126876 717.2382636 C-113.22211901 696.23531613 -113.23258451 675.23236726 -113.24139837 654.22941186 C-113.24560471 644.29229289 -113.25082677 634.35517453 -113.2560829 624.41805607 C-113.27397504 590.39955917 -113.2889702 556.3810621 -113.29640309 522.3625612 C-113.29687785 520.2265629 -113.29735374 518.09056459 -113.29783075 515.95456629 C-113.29806713 514.89530386 -113.29830351 513.83604143 -113.29854705 512.74468014 C-113.29974824 507.37794858 -113.30096369 502.01121701 -113.30218903 496.64448545 C-113.30242918 495.57944102 -113.30266933 494.51439659 -113.30291676 493.41707808 C-113.31080704 458.89749915 -113.33423227 424.37795461 -113.36674498 389.8583907 C-113.40105883 353.35981736 -113.42075576 316.86126413 -113.42404733 280.36267439 C-113.42446487 276.35415054 -113.42494443 272.3456267 -113.42547051 268.33710287 C-113.4255937 267.35009639 -113.4257169 266.36308991 -113.42584382 265.34617415 C-113.4281741 249.47494471 -113.44382465 233.60375526 -113.46431236 217.73254006 C-113.48458934 201.77099033 -113.49003883 185.80948852 -113.48054173 169.8479283 C-113.47533379 160.37127015 -113.48117071 150.89477178 -113.5030764 141.4181367 C-113.51662016 135.07846951 -113.51547602 128.73891186 -113.50267444 122.39924349 C-113.49580143 118.79307603 -113.49502606 115.18721322 -113.51223453 111.58107342 C-113.65933577 78.66268236 -107.05930823 52.15184497 -83.47967927 27.91621397 C-59.52179087 5.15446096 -32.11388034 -0.1298526 0 0 Z M-48.00702302 68.51387022 C-48.88680818 69.36271787 -48.88680818 69.36271787 -49.78436677 70.22871397 C-60.54994834 81.43258894 -61.32317651 98.14291772 -61.2587053 112.82751653 C-61.26161218 114.00082204 -61.26451906 115.17412755 -61.26751403 116.38298777 C-61.27351641 119.61314183 -61.27067806 122.84314234 -61.26395813 126.07329026 C-61.25885353 129.59754269 -61.26541683 133.12177753 -61.27044479 136.64602742 C-61.27764814 142.81395746 -61.27746139 148.98185244 -61.27235047 155.14978407 C-61.26477104 164.32176284 -61.26866047 173.49371217 -61.27476709 182.66569076 C-61.28528881 199.04830672 -61.28438973 215.43090706 -61.27860926 231.81352449 C-61.27357597 246.14907511 -61.27226577 260.48462001 -61.27465455 274.82017133 C-61.27480732 275.77148793 -61.27496009 276.72280453 -61.27511749 277.7029489 C-61.27574018 281.56473791 -61.27637698 285.42652692 -61.27703702 289.28831592 C-61.28315315 325.50443625 -61.27761087 361.72054665 -61.26684322 397.93666544 C-61.25735069 430.10872731 -61.25820277 462.28077334 -61.26776521 494.45283506 C-61.27847511 530.60620517 -61.28272091 566.7595665 -61.27654068 602.91293798 C-61.27589925 606.76702553 -61.27527357 610.62111308 -61.27465455 614.47520063 C-61.27449639 615.424162 -61.27433824 616.37312338 -61.27417529 617.35084115 C-61.27190076 631.67836087 -61.27456009 646.00587424 -61.27961366 660.33339307 C-61.28533086 676.62354981 -61.28390522 692.9136885 -61.27305217 709.20384299 C-61.26717908 718.31981547 -61.26679703 727.43574887 -61.27434452 736.55172033 C-61.27883052 742.64175391 -61.2760359 748.73175617 -61.26733498 754.82178511 C-61.26258026 758.29090337 -61.26094485 761.75994401 -61.26814694 765.22905981 C-61.27422177 768.97008326 -61.26799673 772.71089385 -61.2587053 776.45190618 C-61.26338763 777.52308268 -61.26806996 778.59425917 -61.27289419 779.69789556 C-61.18420422 797.54523083 -55.56592363 810.65683547 -43.00702302 823.51387022 C-30.9293613 834.04806079 -17.9174769 836.67191632 -2.43445699 836.64250467 C-0.68533272 836.64513423 -0.68533272 836.64513423 1.0991274 836.6478169 C4.33696318 836.65166821 7.57476254 836.65104784 10.81259851 836.64853913 C14.33480327 836.64690474 17.85700204 836.65104799 21.37920489 836.65444831 C27.5528718 836.65960159 33.72653088 836.66101963 39.90019973 836.6599922 C49.080866 836.65846806 58.26152359 836.66262729 67.44218817 836.66786682 C84.79296323 836.67754235 102.14373534 836.68035114 119.49451278 836.68092388 C132.89336774 836.68138328 146.29222154 836.68344086 159.69107612 836.6866245 C163.5467926 836.68752204 167.40250909 836.68841185 171.25822558 836.68929938 C172.69601008 836.68963095 172.69601008 836.68963095 174.16284073 836.68996923 C201.12800479 836.69612427 228.09316845 836.70006971 255.05833324 836.69962595 C256.07517636 836.69961037 257.09201949 836.69959479 258.13967604 836.69957874 C263.29355061 836.69949563 268.44742518 836.69939659 273.60129974 836.69929403 C274.62489149 836.69927409 275.64848323 836.69925414 276.7030929 836.69923359 C278.7730456 836.69919315 280.8429983 836.69915136 282.912951 836.6991082 C315.11760935 836.69849545 347.32225718 836.70600154 379.52691253 836.71968076 C415.70258758 836.73504035 451.87825571 836.74364706 488.05393423 836.74271754 C491.9112225 836.74264291 495.76851076 836.7425942 499.62579902 836.74256323 C500.57557197 836.74255157 501.52534492 836.74253992 502.50389887 836.74252791 C517.79039436 836.74249713 533.07688071 836.74888392 548.36337347 836.75749549 C563.72637616 836.76597117 579.08936547 836.76696259 594.45236919 836.76038617 C603.57921121 836.75668992 612.7060126 836.75852513 621.83285031 836.76832851 C627.93161549 836.77432583 634.03035124 836.77303579 640.12911507 836.76585801 C643.60250833 836.76197442 647.07582297 836.76120687 650.54921071 836.76931536 C654.29661432 836.77636943 658.04380873 836.77108622 661.79120525 836.76275919 C663.3966021 836.77021146 663.3966021 836.77021146 665.03443121 836.77781428 C680.62574727 836.70457523 694.36230052 833.91400136 705.80938323 822.75996397 C706.89026214 821.64814756 706.89026214 821.64814756 707.99297698 820.51387022 C708.57950042 819.94797178 709.16602386 819.38207334 709.77032073 818.79902647 C720.5359023 807.5951515 721.30913047 790.88482271 721.24465926 776.2002239 C721.24756614 775.02691839 721.25047303 773.85361288 721.25346799 772.64475266 C721.25947037 769.4145986 721.25663203 766.18459809 721.24991209 762.95445017 C721.2448075 759.43019774 721.25137079 755.9059629 721.25639876 752.38171301 C721.2636021 746.21378298 721.26341535 740.04588799 721.25830443 733.87795637 C721.250725 724.70597759 721.25461444 715.53402827 721.26072105 706.36204967 C721.27124277 689.97943372 721.27034369 673.59683338 721.26456322 657.21421594 C721.25952993 642.87866532 721.25821973 628.54312042 721.26060851 614.2075691 C721.26076128 613.2562525 721.26091405 612.30493591 721.26107145 611.32479153 C721.26169414 607.46300252 721.26233094 603.60121352 721.26299098 599.73942451 C721.26910711 563.52330418 721.26356483 527.30719379 721.25279719 491.09107499 C721.24330465 458.91901313 721.24415673 426.7469671 721.25371917 394.57490537 C721.26442907 358.42153526 721.26867487 322.26817393 721.26249464 286.11480246 C721.26185321 282.26071491 721.26122753 278.40662736 721.26060851 274.5525398 C721.26045036 273.60357843 721.2602922 272.65461706 721.26012926 271.67689928 C721.25785473 257.34937956 721.26051406 243.0218662 721.26556762 228.69434736 C721.27128482 212.40419062 721.26985918 196.11405193 721.25900613 179.82389744 C721.25313304 170.70792497 721.25275099 161.59199157 721.26029848 152.4760201 C721.26478448 146.38598652 721.26198986 140.29598426 721.25328894 134.20595532 C721.24853422 130.73683707 721.24689881 127.26779642 721.25410091 123.79868063 C721.26017573 120.05765717 721.2539507 116.31684659 721.24465926 112.57583425 C721.24934159 111.50465776 721.25402393 110.43348126 721.25884815 109.32984487 C721.17028867 91.50876888 715.57073499 78.33279468 702.99297698 65.51387022 C699.8204437 62.854118 696.55549883 60.61605253 692.99297698 58.51387022 C692.32653167 58.1052374 691.66008636 57.69660459 690.97344573 57.27558897 C682.09885698 52.30509629 671.85227587 52.21881942 661.92821963 52.26218794 C660.75752141 52.25928105 659.58682318 52.25637417 658.38064926 52.2533792 C655.14847686 52.24736343 651.91645705 52.25022667 648.68429068 52.25693511 C645.16131178 52.26202917 641.6383507 52.25548052 638.11537434 52.25044844 C631.9465492 52.24323743 625.77775908 52.2434366 619.60893233 52.24854276 C610.43553697 52.25611524 601.2621711 52.25223632 592.08877594 52.24612615 C575.7037602 52.23559861 559.31876006 52.23650592 542.93374284 52.24228397 C528.59428318 52.24731582 514.25482924 52.24862814 499.91536887 52.24623869 C498.48840545 52.24600953 498.48840545 52.24600953 497.03261447 52.24577575 C493.17089407 52.24515306 489.30917367 52.24451626 485.44745327 52.24385622 C449.22318972 52.23773856 412.9989361 52.24328452 376.77467408 52.25405001 C344.59621569 52.26354041 312.41777313 52.26269257 280.23931487 52.25312803 C244.08265357 52.24241695 207.92600105 52.23817319 171.76933839 52.24435256 C167.91435921 52.24499399 164.05938003 52.24561967 160.20440086 52.24623869 C158.78062043 52.24647592 158.78062043 52.24647592 157.32807676 52.24671794 C142.99882033 52.24899221 128.66957025 52.24633358 114.3403147 52.24127958 C98.04538037 52.23556092 81.75046407 52.23699102 65.45553198 52.24784107 C56.33755823 52.25371215 47.21962355 52.25409913 38.10165082 52.24654872 C32.00893599 52.2420602 25.91625244 52.24486189 19.82354223 52.25355826 C16.35367752 52.25830956 12.88389036 52.25995556 9.41402813 52.25274629 C5.67046951 52.24666399 1.92712305 52.25290411 -1.81642453 52.26218794 C-3.4201063 52.25516444 -3.4201063 52.25516444 -5.05618567 52.24799905 C-22.22679236 52.33309303 -35.83279887 55.99118885 -48.00702302 68.51387022 Z " fill="#000000" transform="translate(202.00702301878482,87.48612978309393)"/>
<path d="M0 0 C0.98677734 0.17692383 1.97355469 0.35384766 2.99023438 0.53613281 C62.20438589 11.37895183 113.54701116 39.00214924 157.4375 79.75 C158.08807373 80.35191162 158.73864746 80.95382324 159.40893555 81.57397461 C163.91386633 85.80794952 167.98498948 90.30357836 172 95 C172.94851871 96.0720872 173.89892482 97.14250868 174.8515625 98.2109375 C210.6543698 138.83298521 233.7857689 189.79495821 243 243 C243.16371094 243.89187012 243.32742188 244.78374023 243.49609375 245.70263672 C248.8722848 276.05478969 248.61346899 310.71001081 243 341 C242.81727539 342.05251953 242.63455078 343.10503906 242.44628906 344.18945312 C237.69475288 371.01339628 229.22181829 397.62520382 217 422 C216.42282227 423.16861572 216.42282227 423.16861572 215.83398438 424.36083984 C206.45791157 443.22424 195.21373634 460.60556752 182 477 C181.53770996 477.57411621 181.07541992 478.14823242 180.59912109 478.73974609 C175.09466166 485.51833012 169.25650934 491.98050819 163.3125 498.375 C162.70680176 499.02927979 162.10110352 499.68355957 161.47705078 500.35766602 C157.22545766 504.87952169 152.7153434 508.96959699 148 513 C146.92790375 513.94850848 145.8574823 514.8989147 144.7890625 515.8515625 C104.23579077 551.60759334 53.21579721 575.02733645 0 584 C-1.25490234 584.22647217 -1.25490234 584.22647217 -2.53515625 584.45751953 C-61.34612898 594.73613411 -125.73653791 584.51845273 -179 558 C-179.78342773 557.61376465 -180.56685547 557.2275293 -181.37402344 556.82958984 C-200.23199005 547.45433294 -217.60974532 536.21036908 -234 523 C-234.86117432 522.30656494 -234.86117432 522.30656494 -235.73974609 521.59912109 C-242.51833012 516.09466166 -248.98050819 510.25650934 -255.375 504.3125 C-256.02927979 503.70680176 -256.68355957 503.10110352 -257.35766602 502.47705078 C-261.87952169 498.22545766 -265.96959699 493.7153434 -270 489 C-270.94850848 487.92790375 -271.8989147 486.8574823 -272.8515625 485.7890625 C-319.58659062 432.77047318 -344.86066994 362.80285954 -344.4375 292.375 C-344.43445862 291.29115021 -344.43141724 290.20730042 -344.42828369 289.09060669 C-344.3553483 271.43294775 -343.44325277 254.36238954 -340 237 C-339.79632813 235.95344238 -339.59265625 234.90688477 -339.3828125 233.82861328 C-334.39847714 209.11846307 -326.20055013 184.57697667 -315 162 C-314.59201172 161.16243164 -314.18402344 160.32486328 -313.76367188 159.46191406 C-304.55795332 140.67803186 -293.20185369 123.22370656 -280 107 C-279.5875 106.49130371 -279.175 105.98260742 -278.75 105.45849609 C-273.18014008 98.62565346 -267.31625036 92.07856464 -261.3125 85.625 C-260.40431519 84.64406372 -260.40431519 84.64406372 -259.4777832 83.64331055 C-255.22613319 79.12092818 -250.71565664 75.03067075 -246 71 C-244.92790375 70.05149152 -243.8574823 69.1010853 -242.7890625 68.1484375 C-202.23579077 32.39240666 -151.21579721 8.97266355 -98 0 C-97.16339844 -0.15098145 -96.32679688 -0.30196289 -95.46484375 -0.45751953 C-65.00640101 -5.78085596 -30.39644603 -5.63260308 0 0 Z M-121 60 C-122.25272705 60.37632568 -122.25272705 60.37632568 -123.53076172 60.76025391 C-168.48341362 74.60485159 -211.59974126 104.3089503 -240 142 C-240.42442383 142.55333008 -240.84884766 143.10666016 -241.28613281 143.67675781 C-248.22154258 152.73555314 -254.42460659 162.04819787 -260 172 C-260.433125 172.76521973 -260.86625 173.53043945 -261.3125 174.31884766 C-279.08706671 205.99873058 -290.90459966 242.99493657 -291.23828125 279.5546875 C-291.2480751 280.44570663 -291.25786896 281.33672577 -291.26795959 282.25474548 C-291.44162714 302.16296868 -291.27372546 321.45925224 -287 341 C-286.78569336 341.98613281 -286.57138672 342.97226562 -286.35058594 343.98828125 C-274.23550715 397.80956284 -243.53042623 449.61684779 -199 483 C-198.38141113 483.47324707 -197.76282227 483.94649414 -197.12548828 484.43408203 C-145.86215764 523.51674934 -81.14181001 541.20885 -17.15625 532.80249023 C24.539046 526.91267752 64.85811585 511.26981699 98 485 C98.8353125 484.35675781 99.670625 483.71351563 100.53125 483.05078125 C107.35499275 477.72783002 113.73097572 471.95595956 120 466 C120.53560547 465.49307617 121.07121094 464.98615234 121.62304688 464.46386719 C129.36681808 457.08380462 136.26303904 449.35387131 142.66162109 440.78271484 C143.99065497 439.01244753 145.34611651 437.26536106 146.70703125 435.51953125 C154.56030366 425.30633923 160.93412278 414.34995883 167 403 C167.61488281 401.856521 167.61488281 401.856521 168.2421875 400.68994141 C179.74419119 378.93552252 187.19504006 354.25514101 191 330 C191.27384521 328.26665405 191.27384521 328.26665405 191.55322266 326.49829102 C193.15355387 315.22828263 193.39916633 304.0592251 193.375 292.6875 C193.37445618 291.72155914 193.37391235 290.75561829 193.37335205 289.76040649 C193.33232791 273.86322306 192.40757363 258.5804432 189 243 C188.78569336 242.01386719 188.57138672 241.02773438 188.35058594 240.01171875 C176.21207753 186.08635099 145.49913799 134.5301628 101 101 C100.17000488 100.36336426 100.17000488 100.36336426 99.32324219 99.71386719 C90.26637227 92.77993151 80.95642764 86.56402012 71 81 C70.21882813 80.56155762 69.43765625 80.12311523 68.6328125 79.67138672 C10.64560192 47.43745249 -57.61379021 40.85729482 -121 60 Z " fill="#000000" transform="translate(581,240)"/>
<path d="M0 0 C5.76431257 4.26415279 9.2543299 8.70295712 11.19140625 15.62109375 C11.43750191 19.04556847 11.43750191 19.04556847 11.43191528 22.87240601 C11.43362413 23.57990356 11.43533298 24.28740112 11.43709362 25.01633799 C11.44037429 27.37476627 11.42940852 29.73290675 11.41845703 32.09130859 C11.41789261 33.78675327 11.41821008 35.48219843 11.41934204 37.17764282 C11.41991534 41.77222529 11.40816463 46.3667031 11.39419413 50.96126127 C11.38168306 55.7658863 11.38051597 60.57051378 11.37814331 65.37515259 C11.37192965 74.46979628 11.35552036 83.56439184 11.33544433 92.65901434 C11.3130818 103.01445152 11.30209101 113.36989101 11.29205346 123.72534633 C11.27115405 145.02395566 11.23598026 166.32252167 11.19140625 187.62109375 C12.24440194 187.6141803 12.24440194 187.6141803 13.31867027 187.60712719 C30.42977813 187.49652273 47.54079474 187.41387653 64.65218163 187.36203289 C72.92726892 187.33629281 81.20211704 187.30122312 89.47705078 187.24389648 C96.69269338 187.19393234 103.90816269 187.16177225 111.12397349 187.15065128 C114.94189011 187.14415436 118.75931115 187.1289739 122.57706833 187.09244347 C126.1772052 187.05827738 129.77664663 187.04808163 133.37693024 187.05555534 C135.31455907 187.05354325 137.25211372 187.0267565 139.18954468 186.99899292 C148.10308096 187.0511383 154.71182955 188.89529198 161.62890625 194.6484375 C162.14453125 195.27878906 162.66015625 195.90914062 163.19140625 196.55859375 C163.99578125 197.50025391 163.99578125 197.50025391 164.81640625 198.4609375 C169.14619535 205.26313458 168.87320679 212.84157477 168.19140625 220.62109375 C166.5335437 227.77718398 162.26078745 232.62998448 156.19140625 236.62109375 C149.53379545 240.36251149 143.19180272 240.02243671 135.68798828 239.95825195 C134.32226575 239.95744465 132.95654178 239.95804189 131.59082031 239.95993042 C128.66011799 239.96148643 125.72962245 239.95414632 122.79895401 239.94008827 C118.15836502 239.91887436 113.51802564 239.92373715 108.87741089 239.93315125 C95.68497466 239.95597668 82.4926891 239.94413264 69.30029297 239.90600586 C62.00613095 239.88515529 54.71228054 239.88591582 47.41812408 239.90954083 C42.81142756 239.92317052 38.20583979 239.91014787 33.59925485 239.87694323 C30.72516974 239.86253181 27.8515741 239.87329618 24.9775238 239.89092636 C23.0242971 239.89558342 21.07106895 239.87056599 19.11801147 239.84443665 C12.0480873 239.91827649 7.61364869 240.74048391 2.02194023 245.20210552 C-4.66786958 250.38789364 -15.77434429 249.42713834 -23.80859375 248.62109375 C-27.23700939 247.78651401 -29.86719689 246.54593423 -32.80859375 244.62109375 C-33.83146484 244.00234375 -33.83146484 244.00234375 -34.875 243.37109375 C-42.18465047 238.48874657 -47.62530042 231.15859456 -49.80859375 222.62109375 C-50.12544673 219.67827721 -50.18976485 216.76702083 -50.18359375 213.80859375 C-50.18198242 213.00905273 -50.18037109 212.20951172 -50.17871094 211.38574219 C-50.02380761 203.94127039 -48.30440037 198.86926276 -43.75982571 192.95472336 C-41.47911142 189.05818167 -41.31330457 186.84526467 -41.32325745 182.36114502 C-41.31928402 181.65253602 -41.3153106 180.94392702 -41.31121677 180.21384501 C-41.30265854 177.85082814 -41.32242014 175.4889145 -41.34204102 173.12597656 C-41.34149202 171.42705131 -41.3391157 169.72812581 -41.33505249 168.02920532 C-41.32988098 164.37545068 -41.3369343 160.72199638 -41.35330391 157.06827545 C-41.37844861 151.28490939 -41.37213057 145.50183891 -41.36082458 139.71844482 C-41.33763514 125.35152935 -41.35601571 110.9846992 -41.38232422 96.61779785 C-41.40229319 85.45501668 -41.41080332 74.29247247 -41.38538784 63.12969089 C-41.37360196 57.38691443 -41.38515906 51.64481366 -41.41464055 45.90210772 C-41.42794802 42.32006994 -41.4204425 38.73829077 -41.40736008 35.15626144 C-41.40551213 33.50273435 -41.4121432 31.8491712 -41.42816353 30.19572067 C-41.51942857 20.22707131 -41.18546946 11.46744943 -34.06849003 3.7290535 C-24.7359178 -5.09298305 -11.16216568 -6.49134182 0 0 Z " fill="#000000" transform="translate(546.80859375,318.37890625)"/>
</svg>
