<svg xmlns="http://www.w3.org/2000/svg" width="1064" height="1064" viewBox="0 0 1064 1064" role="img" aria-label="Speed classification icon">
  <path fill="#000000" fill-rule="evenodd" d="
    M503 89L553 90L593 95L630 103L676 118L699 129H702L722 139L725 142L731 153V164L726 174L710 190V192L688 215V217L682 223L675 226L661 225L653 220H650L636 213L624 210L622 208L576 196L535 191H492L452 196L406 208L404 210L382 217L351 232L350 234L339 239L338 241L334 242L333 244L319 252L317 255H315L313 258H311L309 261L303 264L299 269H297L293 274H291L254 312V314L249 318V320L246 322V324L243 326V328L240 330V332L237 334L235 339L232 341V343L226 350L225 354L223 355L221 361L216 367L209 383L207 384L204 390V393L197 406V409L195 411V414L193 416L191 425L186 436L175 481L170 526V562L175 606L184 644L197 681L216 720L218 721L223 732L225 733V735L227 736V738L229 739L237 753L247 764V766L251 769V771L256 775V777L263 783V785L289 811H291L303 823H305L308 827H310L320 836L325 838L327 841H329L339 849L343 850L344 852L348 853L349 855L355 857L356 859L400 880L435 892L474 901L511 906L563 907L605 903L636 897L647 893H659L666 896L673 903L675 908L674 923L670 930L656 942L631 954L600 964L559 972L530 975H480L451 972L418 966L374 953L360 946L354 945L342 938H339L325 931L324 929L314 925L313 923L307 921L306 919L302 918L296 913L292 912L291 910H289L288 908H286L285 906L281 905L276 900L268 896L254 884H252L238 871H236L230 864H228L220 855H218L192 828V826L180 814V812L176 809V807L173 805V803L169 800L167 795L161 789V787L149 771L148 767L146 766L145 762L143 761L142 757L140 756L121 719V716L118 712V709L115 705L110 689L108 687L93 637L85 594L81 549L82 503L87 461L96 419L109 378L118 359V356L121 352V349L137 317L139 316L141 310L143 309L150 295L152 294V292L154 291L162 277L165 275L169 267L172 265V263L176 260V258L188 245V243L195 237V235L206 225V223L220 209H222L233 197H235L240 191H242L245 187H247L250 183H252L255 179H257L267 170H269L270 168H272L273 166H275L291 154L300 150L301 148L314 142L315 140L335 130H338L346 125H349L363 118L372 116L374 114L392 108H396L399 106H403L406 104L422 100L467 92Z
    M851 136L858 144L862 155V166L857 180L852 185V187L845 195V197L842 199L838 207L835 209V211L828 219L826 224L823 226L819 234L816 236L814 241L806 250V252L799 260L795 268L792 270L788 278L777 291L773 299L770 301L766 309L763 311L761 316L753 325V327L746 335L744 340L741 342L739 347L736 349V351L729 359L725 367L719 373L715 381L707 390L701 401L698 403L694 411L691 413L689 418L686 420L684 425L676 434V436L669 444L665 452L659 458V460L652 468L650 473L647 475L643 483L637 489V491L630 499L624 510L618 516L623 539V559L621 572L615 590L611 598L609 599L608 603L601 611V613L586 628H584L582 631H580L573 637L556 645L535 650H507L496 648L485 643H482L461 631L443 614V612L440 610V608L437 606L434 599L432 598L423 576L420 561V538L425 515L434 496L441 488V486L444 484V482L460 467H462L463 465H465L466 463H468L469 461L473 460L478 456L504 448L531 447L538 440V438L545 432V430L556 420V418L565 410V408L573 401V399L582 391V389L589 383V381L598 373V371L607 363V361L615 354V352L624 344V342L643 323V321L651 314V312L659 305V303L668 295V293L676 286V284L695 265V263L711 247V245L727 229V227L735 220V218L743 211V209L751 202V200L759 193V191L782 167V165L791 157V155L799 148V146L805 141L806 138H808L813 133L823 129H837Z
    M864 232H874L880 235L885 240V242L892 248V250L897 254V256L901 259V261L911 272L913 277L916 279V281L926 294L930 303L934 307L944 328L946 329V332L955 348L957 356L963 367L967 382L969 384L973 396V400L976 406V410L978 413L983 433V442L981 447L976 453L970 456H965L962 458L950 460L940 464L916 469L913 471L905 472L902 474L878 480L868 479L859 472L855 456L853 453V449L851 446V442L846 427L844 425L843 419L841 417L840 411L834 400V397L816 362L814 361L813 357L811 356L810 352L808 351V349L806 348L805 344L800 339L796 331V321L801 311L807 305L809 300L812 298L814 293L817 291L819 286L825 280L827 275L833 269L835 264L841 258V256L846 251L851 242L854 240V238Z
    M515 506L507 508L497 513L486 524L479 541V556L485 572L494 582H496L497 584L506 589L514 591H529L545 585L556 575L563 560L564 542L561 531L558 528L557 524L546 513L536 508L528 506Z
  "/>
</svg>
